Oma.ufo
<glyph name="one" format="2">
  <advance width="1000"/>
  <unicode hex="0031"/>
  <outline>
    <contour>
      <point x="150" y="450" type="curve" smooth="yes"/>
      <point x="67.1572" y="450"/>
      <point x="0" y="517.157"/>
      <point x="0" y="600" type="curve" smooth="yes"/>
      <point x="0" y="625" type="line" smooth="yes"/>
      <point x="0" y="721.649"/>
      <point x="78.3506" y="800"/>
      <point x="175" y="800" type="curve" smooth="yes"/>
      <point x="500" y="800" type="line" smooth="yes"/>
      <point x="610.457" y="800"/>
      <point x="700" y="710.457"/>
      <point x="700" y="600" type="curve" smooth="yes"/>
      <point x="700" y="0" type="line" smooth="yes"/>
      <point x="700" y="-110.457"/>
      <point x="610.457" y="-200"/>
      <point x="500" y="-200" type="curve" smooth="yes"/>
      <point x="389.543" y="-200"/>
      <point x="300" y="-110.457"/>
      <point x="300" y="0" type="curve" smooth="yes"/>
      <point x="300" y="300" type="line" smooth="yes"/>
      <point x="300" y="382.843"/>
      <point x="232.843" y="450"/>
    </contour>
  </outline>
</glyph>
<glyph name="question" format="2">
  <advance width="1000"/>
  <unicode hex="003F"/>
  <outline>
    <contour>
      <point x="175" y="300" type="line" smooth="yes"/>
      <point x="78.3506" y="300"/>
      <point x="0" y="378.35"/>
      <point x="0" y="475" type="curve" smooth="yes"/>
      <point x="0" y="600" type="line" smooth="yes"/>
      <point x="0" y="710.457"/>
      <point x="89.543" y="800"/>
      <point x="200" y="800" type="curve" smooth="yes"/>
      <point x="800" y="800" type="line" smooth="yes"/>
      <point x="910.457" y="800"/>
      <point x="1000" y="710.457"/>
      <point x="1000" y="600" type="curve" smooth="yes"/>
      <point x="1000" y="250" type="line" smooth="yes"/>
      <point x="1000" y="167.157"/>
      <point x="932.843" y="100"/>
      <point x="850" y="100" type="curve" smooth="yes"/>
      <point x="767.157" y="100"/>
      <point x="700" y="32.8428"/>
      <point x="700" y="-50" type="curve" smooth="yes"/>
      <point x="700" y="-132.843"/>
      <point x="632.843" y="-200"/>
      <point x="550" y="-200" type="curve" smooth="yes"/>
      <point x="467.157" y="-200"/>
      <point x="400" y="-132.843"/>
      <point x="400" y="-50" type="curve" smooth="yes"/>
      <point x="400" y="125" type="line" smooth="yes"/>
      <point x="400" y="194.035"/>
      <point x="455.965" y="250"/>
      <point x="525" y="250" type="curve" smooth="yes"/>
      <point x="594.035" y="250"/>
      <point x="650" y="305.965"/>
      <point x="650" y="375" type="curve" smooth="yes"/>
      <point x="650" y="400" type="line" smooth="yes"/>
      <point x="650" y="482.843"/>
      <point x="582.843" y="550"/>
      <point x="500" y="550" type="curve" smooth="yes"/>
      <point x="475" y="550" type="line" smooth="yes"/>
      <point x="405.965" y="550"/>
      <point x="350" y="494.035"/>
      <point x="350" y="425" type="curve" smooth="yes"/>
      <point x="350" y="355.965"/>
      <point x="294.035" y="300"/>
      <point x="225" y="300" type="curve" smooth="yes"/>
    </contour>
  </outline>
</glyph>
<glyph name="L" format="2">
  <advance width="1000"/>
  <unicode hex="004C"/>
  <outline>
    <contour>
      <point x="200" y="800" type="curve" smooth="yes"/>
      <point x="310.457" y="800"/>
      <point x="400" y="710.457"/>
      <point x="400" y="600" type="curve" smooth="yes"/>
      <point x="400" y="375" type="line" smooth="yes"/>
      <point x="400" y="264.543"/>
      <point x="489.543" y="175"/>
      <point x="600" y="175" type="curve" smooth="yes"/>
      <point x="812.5" y="175" type="line" smooth="yes"/>
      <point x="916.053" y="175"/>
      <point x="1000" y="91.0527"/>
      <point x="1000" y="-12.5" type="curve" smooth="yes"/>
      <point x="1000" y="-116.053"/>
      <point x="916.053" y="-200"/>
      <point x="812.5" y="-200" type="curve" smooth="yes"/>
      <point x="200" y="-200" type="line" smooth="yes"/>
      <point x="89.543" y="-200"/>
      <point x="0" y="-110.457"/>
      <point x="0" y="0" type="curve" smooth="yes"/>
      <point x="0" y="600" type="line" smooth="yes"/>
      <point x="0" y="710.457"/>
      <point x="89.543" y="800"/>
    </contour>
  </outline>
</glyph>
<glyph name="R" format="2">
  <advance width="1000"/>
  <unicode hex="0052"/>
  <outline>
    <contour>
      <point x="0" y="400" type="line" smooth="yes"/>
      <point x="0" y="620.914"/>
      <point x="179.086" y="800"/>
      <point x="400" y="800" type="curve" smooth="yes"/>
      <point x="700" y="800" type="line" smooth="yes"/>
      <point x="865.685" y="800"/>
      <point x="1000" y="665.686"/>
      <point x="1000" y="500" type="curve" smooth="yes"/>
      <point x="1000" y="400" type="line" smooth="yes"/>
      <point x="1000" y="289.543"/>
      <point x="910.457" y="200"/>
      <point x="800" y="200" type="curve" smooth="yes"/>
      <point x="689.543" y="200"/>
      <point x="600" y="110.457"/>
      <point x="600" y="0" type="curve" smooth="yes"/>
      <point x="600" y="-110.457"/>
      <point x="510.457" y="-200"/>
      <point x="400" y="-200" type="curve" smooth="yes"/>
      <point x="300" y="-200" type="line" smooth="yes"/>
      <point x="134.314" y="-200"/>
      <point x="0" y="-65.6846"/>
      <point x="0" y="100" type="curve" smooth="yes"/>
    </contour>
    <contour>
      <point x="700" y="600" type="curve" smooth="yes"/>
      <point x="644.772" y="600"/>
      <point x="600" y="555.229"/>
      <point x="600" y="500" type="curve" smooth="yes"/>
      <point x="600" y="444.772"/>
      <point x="644.772" y="400"/>
      <point x="700" y="400" type="curve" smooth="yes"/>
      <point x="755.228" y="400"/>
      <point x="800" y="444.772"/>
      <point x="800" y="500" type="curve" smooth="yes"/>
      <point x="800" y="555.229"/>
      <point x="755.228" y="600"/>
    </contour>
    <contour>
      <point x="735.643" y="-107.735" type="line" smooth="yes"/>
      <point x="688.12" y="-60.2129"/>
      <point x="688.12" y="16.835"/>
      <point x="735.643" y="64.3574" type="curve" smooth="yes"/>
      <point x="783.165" y="111.88"/>
      <point x="860.213" y="111.88"/>
      <point x="907.735" y="64.3574" type="curve" smooth="yes"/>
      <point x="964.357" y="7.73535" type="line" smooth="yes"/>
      <point x="1011.88" y="-39.7871"/>
      <point x="1011.88" y="-116.835"/>
      <point x="964.357" y="-164.357" type="curve" smooth="yes"/>
      <point x="916.835" y="-211.88"/>
      <point x="839.787" y="-211.88"/>
      <point x="792.265" y="-164.357" type="curve" smooth="yes"/>
    </contour>
  </outline>
</glyph>
<glyph name="backslash" format="2">
  <advance width="1000"/>
  <unicode hex="005C"/>
  <outline>
    <contour>
      <point x="200" y="200" type="line" smooth="yes"/>
      <point x="89.543" y="200"/>
      <point x="0" y="289.543"/>
      <point x="0" y="400" type="curve" smooth="yes"/>
      <point x="0" y="600" type="line" smooth="yes"/>
      <point x="0" y="710.457"/>
      <point x="89.543" y="800"/>
      <point x="200" y="800" type="curve" smooth="yes"/>
      <point x="300" y="800" type="line" smooth="yes"/>
      <point x="410.457" y="800"/>
      <point x="500" y="710.457"/>
      <point x="500" y="600" type="curve" smooth="yes"/>
      <point x="500" y="489.543"/>
      <point x="589.543" y="400"/>
      <point x="700" y="400" type="curve" smooth="yes"/>
      <point x="800" y="400" type="line" smooth="yes"/>
      <point x="910.457" y="400"/>
      <point x="1000" y="310.457"/>
      <point x="1000" y="200" type="curve" smooth="yes"/>
      <point x="1000" y="0" type="line" smooth="yes"/>
      <point x="1000" y="-110.457"/>
      <point x="910.457" y="-200"/>
      <point x="800" y="-200" type="curve" smooth="yes"/>
      <point x="700" y="-200" type="line" smooth="yes"/>
      <point x="589.543" y="-200"/>
      <point x="500" y="-110.457"/>
      <point x="500" y="0" type="curve" smooth="yes"/>
      <point x="500" y="110.457"/>
      <point x="410.457" y="200"/>
      <point x="300" y="200" type="curve" smooth="yes"/>
    </contour>
  </outline>
</glyph>
<glyph name="a" format="2">
  <advance width="1000"/>
  <unicode hex="0061"/>
  <outline>
    <contour>
      <point x="0" y="400" type="line" smooth="yes"/>
      <point x="0" y="620.914"/>
      <point x="179.086" y="800"/>
      <point x="400" y="800" type="curve" smooth="yes"/>
      <point x="600" y="800" type="line" smooth="yes"/>
      <point x="820.915" y="800"/>
      <point x="1000" y="620.914"/>
      <point x="1000" y="400" type="curve" smooth="yes"/>
      <point x="1000" y="25" type="line" smooth="yes"/>
      <point x="1000" y="-99.2646"/>
      <point x="899.265" y="-200"/>
      <point x="775" y="-200" type="curve" smooth="yes"/>
      <point x="675" y="-200" type="line" smooth="yes"/>
      <point x="605.965" y="-200"/>
      <point x="550" y="-144.035"/>
      <point x="550" y="-75" type="curve" smooth="yes"/>
      <point x="550" y="-50" type="line" smooth="yes"/>
      <point x="550" y="5.22754"/>
      <point x="505.228" y="50"/>
      <point x="450" y="50" type="curve" smooth="yes"/>
      <point x="394.772" y="50"/>
      <point x="350" y="5.22754"/>
      <point x="350" y="-50" type="curve" smooth="yes"/>
      <point x="350" y="-75" type="line" smooth="yes"/>
      <point x="350" y="-144.035"/>
      <point x="294.035" y="-200"/>
      <point x="225" y="-200" type="curve" smooth="yes"/>
      <point x="175" y="-200" type="line" smooth="yes"/>
      <point x="78.3506" y="-200"/>
      <point x="0" y="-121.65"/>
      <point x="0" y="-25" type="curve" smooth="yes"/>
    </contour>
    <contour>
      <point x="350" y="400" type="curve" smooth="yes"/>
      <point x="350" y="344.772"/>
      <point x="394.772" y="300"/>
      <point x="450" y="300" type="curve" smooth="yes"/>
      <point x="505.228" y="300"/>
      <point x="550" y="344.772"/>
      <point x="550" y="400" type="curve" smooth="yes"/>
      <point x="550" y="455.228"/>
      <point x="505.228" y="500"/>
      <point x="450" y="500" type="curve" smooth="yes"/>
      <point x="394.772" y="500"/>
      <point x="350" y="455.228"/>
    </contour>
  </outline>
</glyph>
<glyph name="d" format="2">
  <advance width="1000"/>
  <unicode hex="0064"/>
  <outline>
    <contour>
      <point x="200" y="800" type="curve" smooth="yes"/>
      <point x="500" y="800" type="line" smooth="yes"/>
      <point x="776.143" y="800"/>
      <point x="1000" y="576.143"/>
      <point x="1000" y="300" type="curve" smooth="yes"/>
      <point x="1000" y="23.8574"/>
      <point x="776.143" y="-200"/>
      <point x="500" y="-200" type="curve" smooth="yes"/>
      <point x="200" y="-200" type="line" smooth="yes"/>
      <point x="89.543" y="-200"/>
      <point x="0" y="-110.457"/>
      <point x="0" y="0" type="curve" smooth="yes"/>
      <point x="0" y="600" type="line" smooth="yes"/>
      <point x="0" y="710.457"/>
      <point x="89.543" y="800"/>
    </contour>
    <contour>
      <point x="500" y="400" type="curve" smooth="yes"/>
      <point x="444.772" y="400"/>
      <point x="400" y="355.228"/>
      <point x="400" y="300" type="curve" smooth="yes"/>
      <point x="400" y="244.772"/>
      <point x="444.772" y="200"/>
      <point x="500" y="200" type="curve" smooth="yes"/>
      <point x="555.228" y="200"/>
      <point x="600" y="244.772"/>
      <point x="600" y="300" type="curve" smooth="yes"/>
      <point x="600" y="355.228"/>
      <point x="555.228" y="400"/>
    </contour>
  </outline>
</glyph>
<glyph name="e" format="2">
  <advance width="1000"/>
  <unicode hex="0065"/>
  <outline>
    <contour>
      <point x="200" y="-200" type="line" smooth="yes"/>
      <point x="89.543" y="-200"/>
      <point x="0" y="-110.457"/>
      <point x="0" y="0" type="curve" smooth="yes"/>
      <point x="0" y="600" type="line" smooth="yes"/>
      <point x="0" y="710.457"/>
      <point x="89.543" y="800"/>
      <point x="200" y="800" type="curve" smooth="yes"/>
      <point x="900" y="800" type="line" smooth="yes"/>
      <point x="955.228" y="800"/>
      <point x="1000" y="755.229"/>
      <point x="1000" y="700" type="curve" smooth="yes"/>
      <point x="1000" y="644.771"/>
      <point x="955.228" y="600"/>
      <point x="900" y="600" type="curve" smooth="yes"/>
      <point x="850" y="600" type="line" smooth="yes"/>
      <point x="794.772" y="600"/>
      <point x="750" y="555.229"/>
      <point x="750" y="500" type="curve" smooth="yes"/>
      <point x="750" y="444.772"/>
      <point x="794.772" y="400"/>
      <point x="850" y="400" type="curve" smooth="yes"/>
      <point x="900" y="400" type="line" smooth="yes"/>
      <point x="955.228" y="400"/>
      <point x="1000" y="355.228"/>
      <point x="1000" y="300" type="curve" smooth="yes"/>
      <point x="1000" y="244.772"/>
      <point x="955.228" y="200"/>
      <point x="900" y="200" type="curve" smooth="yes"/>
      <point x="850" y="200" type="line" smooth="yes"/>
      <point x="794.772" y="200"/>
      <point x="750" y="155.228"/>
      <point x="750" y="100" type="curve" smooth="yes"/>
      <point x="750" y="44.7725"/>
      <point x="794.772" y="0"/>
      <point x="850" y="0" type="curve" smooth="yes"/>
      <point x="900" y="0" type="line" smooth="yes"/>
      <point x="955.228" y="0"/>
      <point x="1000" y="-44.7725"/>
      <point x="1000" y="-100" type="curve" smooth="yes"/>
      <point x="1000" y="-155.228"/>
      <point x="955.228" y="-200"/>
      <point x="900" y="-200" type="curve" smooth="yes"/>
    </contour>
  </outline>
</glyph>
<glyph name="g" format="2">
  <advance width="1000"/>
  <unicode hex="0067"/>
  <outline>
    <contour>
      <point x="200" y="-200" type="line" smooth="yes"/>
      <point x="89.543" y="-200"/>
      <point x="0" y="-110.457"/>
      <point x="0" y="0" type="curve" smooth="yes"/>
      <point x="0" y="600" type="line" smooth="yes"/>
      <point x="0" y="710.457"/>
      <point x="89.543" y="800"/>
      <point x="200" y="800" type="curve" smooth="yes"/>
      <point x="875" y="800" type="line" smooth="yes"/>
      <point x="944.035" y="800"/>
      <point x="1000" y="744.035"/>
      <point x="1000" y="675" type="curve" smooth="yes"/>
      <point x="1000" y="605.965"/>
      <point x="944.035" y="550"/>
      <point x="875" y="550" type="curve" smooth="yes"/>
      <point x="725" y="550" type="line" smooth="yes"/>
      <point x="614.543" y="550"/>
      <point x="525" y="460.457"/>
      <point x="525" y="350" type="curve" smooth="yes"/>
      <point x="525" y="275" type="line" smooth="yes"/>
      <point x="525" y="205.965"/>
      <point x="580.965" y="150"/>
      <point x="650" y="150" type="curve" smooth="yes"/>
      <point x="675" y="150" type="line" smooth="yes"/>
      <point x="730.228" y="150"/>
      <point x="775" y="194.772"/>
      <point x="775" y="250" type="curve" smooth="yes"/>
      <point x="775" y="305.228"/>
      <point x="819.772" y="350"/>
      <point x="875" y="350" type="curve" smooth="yes"/>
      <point x="887.5" y="350" type="line" smooth="yes"/>
      <point x="949.633" y="350"/>
      <point x="1000" y="299.633"/>
      <point x="1000" y="237.5" type="curve" smooth="yes"/>
      <point x="1000" y="0" type="line" smooth="yes"/>
      <point x="1000" y="-110.457"/>
      <point x="910.457" y="-200"/>
      <point x="800" y="-200" type="curve" smooth="yes"/>
    </contour>
  </outline>
</glyph>
<glyph name="j" format="2">
  <advance width="1000"/>
  <unicode hex="006A"/>
  <outline>
    <contour>
      <point x="800" y="-200" type="curve" smooth="yes"/>
      <point x="200" y="-200" type="line" smooth="yes"/>
      <point x="89.543" y="-200"/>
      <point x="0" y="-110.457"/>
      <point x="0" y="0" type="curve" smooth="yes"/>
      <point x="0" y="300" type="line" smooth="yes"/>
      <point x="0" y="382.843"/>
      <point x="67.1572" y="450"/>
      <point x="150" y="450" type="curve" smooth="yes"/>
      <point x="162.5" y="450" type="line" smooth="yes"/>
      <point x="238.439" y="450"/>
      <point x="300" y="388.44"/>
      <point x="300" y="312.5" type="curve" smooth="yes"/>
      <point x="300" y="236.56"/>
      <point x="361.56" y="175"/>
      <point x="437.5" y="175" type="curve" smooth="yes"/>
      <point x="450" y="175" type="line" smooth="yes"/>
      <point x="532.843" y="175"/>
      <point x="600" y="242.157"/>
      <point x="600" y="325" type="curve" smooth="yes"/>
      <point x="600" y="600" type="line" smooth="yes"/>
      <point x="600" y="710.457"/>
      <point x="689.543" y="800"/>
      <point x="800" y="800" type="curve" smooth="yes"/>
      <point x="910.457" y="800"/>
      <point x="1000" y="710.457"/>
      <point x="1000" y="600" type="curve" smooth="yes"/>
      <point x="1000" y="0" type="line" smooth="yes"/>
      <point x="1000" y="-110.457"/>
      <point x="910.457" y="-200"/>
    </contour>
  </outline>
</glyph>
<glyph name="m" format="2">
  <advance width="1000"/>
  <unicode hex="006D"/>
  <outline>
    <contour>
      <point x="0" y="600" type="line" smooth="yes"/>
      <point x="0" y="710.457"/>
      <point x="89.543" y="800"/>
      <point x="200" y="800" type="curve" smooth="yes"/>
      <point x="800" y="800" type="line" smooth="yes"/>
      <point x="910.457" y="800"/>
      <point x="1000" y="710.457"/>
      <point x="1000" y="600" type="curve" smooth="yes"/>
      <point x="1000" y="-100" type="line" smooth="yes"/>
      <point x="1000" y="-155.228"/>
      <point x="955.228" y="-200"/>
      <point x="900" y="-200" type="curve" smooth="yes"/>
      <point x="844.772" y="-200"/>
      <point x="800" y="-155.228"/>
      <point x="800" y="-100" type="curve" smooth="yes"/>
      <point x="800" y="-50" type="line" smooth="yes"/>
      <point x="800" y="5.22754"/>
      <point x="755.228" y="50"/>
      <point x="700" y="50" type="curve" smooth="yes"/>
      <point x="644.772" y="50"/>
      <point x="600" y="5.22754"/>
      <point x="600" y="-50" type="curve" smooth="yes"/>
      <point x="600" y="-100" type="line" smooth="yes"/>
      <point x="600" y="-155.228"/>
      <point x="555.228" y="-200"/>
      <point x="500" y="-200" type="curve" smooth="yes"/>
      <point x="444.772" y="-200"/>
      <point x="400" y="-155.228"/>
      <point x="400" y="-100" type="curve" smooth="yes"/>
      <point x="400" y="-50" type="line" smooth="yes"/>
      <point x="400" y="5.22754"/>
      <point x="355.228" y="50"/>
      <point x="300" y="50" type="curve" smooth="yes"/>
      <point x="244.771" y="50"/>
      <point x="200" y="5.22754"/>
      <point x="200" y="-50" type="curve" smooth="yes"/>
      <point x="200" y="-100" type="line" smooth="yes"/>
      <point x="200" y="-155.228"/>
      <point x="155.229" y="-200"/>
      <point x="100" y="-200" type="curve" smooth="yes"/>
      <point x="44.7715" y="-200"/>
      <point x="0" y="-155.228"/>
      <point x="0" y="-100" type="curve" smooth="yes"/>
    </contour>
  </outline>
</glyph>
<glyph name="n" format="2">
  <advance width="1000"/>
  <unicode hex="006E"/>
  <outline>
    <contour>
      <point x="800" y="700" type="line" smooth="yes"/>
      <point x="800" y="755.229"/>
      <point x="844.772" y="800"/>
      <point x="900" y="800" type="curve" smooth="yes"/>
      <point x="955.228" y="800"/>
      <point x="1000" y="755.229"/>
      <point x="1000" y="700" type="curve" smooth="yes"/>
      <point x="1000" y="0" type="line" smooth="yes"/>
      <point x="1000" y="-110.457"/>
      <point x="910.457" y="-200"/>
      <point x="800" y="-200" type="curve" smooth="yes"/>
      <point x="525" y="-200" type="line" smooth="yes"/>
      <point x="455.965" y="-200"/>
      <point x="400" y="-144.035"/>
      <point x="400" y="-75" type="curve" smooth="yes"/>
      <point x="400" y="-50" type="line" smooth="yes"/>
      <point x="400" y="5.22754"/>
      <point x="355.228" y="50"/>
      <point x="300" y="50" type="curve" smooth="yes"/>
      <point x="244.771" y="50"/>
      <point x="200" y="5.22754"/>
      <point x="200" y="-50" type="curve" smooth="yes"/>
      <point x="200" y="-100" type="line" smooth="yes"/>
      <point x="200" y="-155.228"/>
      <point x="155.229" y="-200"/>
      <point x="100" y="-200" type="curve" smooth="yes"/>
      <point x="44.7715" y="-200"/>
      <point x="0" y="-155.228"/>
      <point x="0" y="-100" type="curve" smooth="yes"/>
      <point x="0" y="600" type="line" smooth="yes"/>
      <point x="0" y="710.457"/>
      <point x="89.543" y="800"/>
      <point x="200" y="800" type="curve" smooth="yes"/>
      <point x="475" y="800" type="line" smooth="yes"/>
      <point x="544.035" y="800"/>
      <point x="600" y="744.035"/>
      <point x="600" y="675" type="curve" smooth="yes"/>
      <point x="600" y="650" type="line" smooth="yes"/>
      <point x="600" y="594.771"/>
      <point x="644.772" y="550"/>
      <point x="700" y="550" type="curve" smooth="yes"/>
      <point x="755.228" y="550"/>
      <point x="800" y="594.771"/>
      <point x="800" y="650" type="curve" smooth="yes"/>
    </contour>
  </outline>
</glyph>
<glyph name="p" format="2">
  <advance width="1000"/>
  <unicode hex="0070"/>
  <outline>
    <contour>
      <point x="0" y="500" type="line" smooth="yes"/>
      <point x="0" y="665.686"/>
      <point x="134.314" y="800"/>
      <point x="300" y="800" type="curve" smooth="yes"/>
      <point x="700" y="800" type="line" smooth="yes"/>
      <point x="865.685" y="800"/>
      <point x="1000" y="665.686"/>
      <point x="1000" y="500" type="curve" smooth="yes"/>
      <point x="1000" y="300" type="line" smooth="yes"/>
      <point x="1000" y="161.93"/>
      <point x="888.07" y="50"/>
      <point x="750" y="50" type="curve" smooth="yes"/>
      <point x="625" y="50" type="line" smooth="yes"/>
      <point x="555.965" y="50"/>
      <point x="500" y="-5.96484"/>
      <point x="500" y="-75" type="curve" smooth="yes"/>
      <point x="500" y="-144.035"/>
      <point x="444.035" y="-200"/>
      <point x="375" y="-200" type="curve" smooth="yes"/>
      <point x="250" y="-200" type="line" smooth="yes"/>
      <point x="111.929" y="-200"/>
      <point x="0" y="-88.0703"/>
      <point x="0" y="50" type="curve" smooth="yes"/>
    </contour>
    <contour>
      <point x="600" y="500" type="curve" smooth="yes"/>
      <point x="600" y="444.772"/>
      <point x="644.772" y="400"/>
      <point x="700" y="400" type="curve" smooth="yes"/>
      <point x="755.228" y="400"/>
      <point x="800" y="444.772"/>
      <point x="800" y="500" type="curve" smooth="yes"/>
      <point x="800" y="555.229"/>
      <point x="755.228" y="600"/>
      <point x="700" y="600" type="curve" smooth="yes"/>
      <point x="644.772" y="600"/>
      <point x="600" y="555.229"/>
    </contour>
  </outline>
</glyph>
<glyph name="q" format="2">
  <advance width="1000"/>
  <unicode hex="0071"/>
  <outline>
    <contour>
      <point x="0" y="409.756" type="line" smooth="yes"/>
      <point x="0" y="625.282"/>
      <point x="174.718" y="800"/>
      <point x="390.244" y="800" type="curve" smooth="yes"/>
      <point x="585.366" y="800" type="line" smooth="yes"/>
      <point x="800.893" y="800"/>
      <point x="975.609" y="625.282"/>
      <point x="975.609" y="409.756" type="curve" smooth="yes"/>
      <point x="975.609" y="214.634" type="line" smooth="yes"/>
      <point x="975.609" y="151.332"/>
      <point x="960.536" y="91.5488"/>
      <point x="933.785" y="38.6807" type="curve" smooth="yes"/>
      <point x="943.337" y="29.127" type="line" smooth="yes"/>
      <point x="990.964" y="-18.498"/>
      <point x="990.964" y="-95.7119"/>
      <point x="943.337" y="-143.337" type="curve" smooth="yes"/>
      <point x="895.712" y="-190.964"/>
      <point x="818.498" y="-190.964"/>
      <point x="770.873" y="-143.337" type="curve" smooth="yes"/>
      <point x="761.319" y="-133.785" type="line" smooth="yes"/>
      <point x="708.451" y="-160.536"/>
      <point x="648.668" y="-175.609"/>
      <point x="585.366" y="-175.609" type="curve" smooth="yes"/>
      <point x="390.244" y="-175.609" type="line" smooth="yes"/>
      <point x="174.718" y="-175.609"/>
      <point x="0" y="-0.892578"/>
      <point x="0" y="214.634" type="curve" smooth="yes"/>
    </contour>
    <contour>
      <point x="487.805" y="214.634" type="curve" smooth="yes"/>
      <point x="487.805" y="160.754"/>
      <point x="531.485" y="117.073"/>
      <point x="585.366" y="117.073" type="curve" smooth="yes"/>
      <point x="639.246" y="117.073"/>
      <point x="682.927" y="160.754"/>
      <point x="682.927" y="214.634" type="curve" smooth="yes"/>
      <point x="682.927" y="268.515"/>
      <point x="639.246" y="312.195"/>
      <point x="585.366" y="312.195" type="curve" smooth="yes"/>
      <point x="531.485" y="312.195"/>
      <point x="487.805" y="268.515"/>
    </contour>
  </outline>
</glyph>
<glyph name="r" format="2">
  <advance width="1000"/>
  <unicode hex="0072"/>
  <outline>
    <contour>
      <point x="0" y="400" type="line" smooth="yes"/>
      <point x="0" y="620.914"/>
      <point x="179.086" y="800"/>
      <point x="400" y="800" type="curve" smooth="yes"/>
      <point x="700" y="800" type="line" smooth="yes"/>
      <point x="865.685" y="800"/>
      <point x="1000" y="665.686"/>
      <point x="1000" y="500" type="curve" smooth="yes"/>
      <point x="1000" y="450" type="line" smooth="yes"/>
      <point x="1000" y="311.93"/>
      <point x="888.07" y="200"/>
      <point x="750" y="200" type="curve" smooth="yes"/>
      <point x="700" y="200" type="line" smooth="yes"/>
      <point x="589.543" y="200"/>
      <point x="500" y="110.457"/>
      <point x="500" y="0" type="curve" smooth="yes"/>
      <point x="500" y="-110.457"/>
      <point x="410.457" y="-200"/>
      <point x="300" y="-200" type="curve" smooth="yes"/>
      <point x="250" y="-200" type="line" smooth="yes"/>
      <point x="111.929" y="-200"/>
      <point x="0" y="-88.0703"/>
      <point x="0" y="50" type="curve" smooth="yes"/>
    </contour>
    <contour>
      <point x="700" y="600" type="curve" smooth="yes"/>
      <point x="644.772" y="600"/>
      <point x="600" y="555.229"/>
      <point x="600" y="500" type="curve" smooth="yes"/>
      <point x="600" y="444.772"/>
      <point x="644.772" y="400"/>
      <point x="700" y="400" type="curve" smooth="yes"/>
      <point x="755.228" y="400"/>
      <point x="800" y="444.772"/>
      <point x="800" y="500" type="curve" smooth="yes"/>
      <point x="800" y="555.229"/>
      <point x="755.228" y="600"/>
    </contour>
    <contour>
      <point x="638.49" y="-124.34" type="line" smooth="yes"/>
      <point x="587.17" y="-73.0195"/>
      <point x="587.17" y="10.1875"/>
      <point x="638.49" y="61.5098" type="curve" smooth="yes"/>
      <point x="689.812" y="112.83"/>
      <point x="773.02" y="112.83"/>
      <point x="824.34" y="61.5098" type="curve" smooth="yes"/>
      <point x="861.51" y="24.3398" type="line" smooth="yes"/>
      <point x="912.83" y="-26.9805"/>
      <point x="912.83" y="-110.188"/>
      <point x="861.51" y="-161.51" type="curve" smooth="yes"/>
      <point x="810.188" y="-212.83"/>
      <point x="726.98" y="-212.83"/>
      <point x="675.66" y="-161.51" type="curve" smooth="yes"/>
    </contour>
  </outline>
</glyph>
<glyph name="u" format="2">
  <advance width="1000"/>
  <unicode hex="0075"/>
  <outline>
    <contour>
      <point x="150" y="800" type="curve" smooth="yes"/>
      <point x="175" y="800" type="line" smooth="yes"/>
      <point x="244.035" y="800"/>
      <point x="300" y="744.035"/>
      <point x="300" y="675" type="curve" smooth="yes"/>
      <point x="300" y="650" type="line" smooth="yes"/>
      <point x="300" y="594.771"/>
      <point x="344.772" y="550"/>
      <point x="400" y="550" type="curve" smooth="yes"/>
      <point x="455.228" y="550"/>
      <point x="500" y="594.771"/>
      <point x="500" y="650" type="curve" smooth="yes"/>
      <point x="500" y="675" type="line" smooth="yes"/>
      <point x="500" y="744.035"/>
      <point x="555.965" y="800"/>
      <point x="625" y="800" type="curve" smooth="yes"/>
      <point x="750" y="800" type="line" smooth="yes"/>
      <point x="888.07" y="800"/>
      <point x="1000" y="688.071"/>
      <point x="1000" y="550" type="curve" smooth="yes"/>
      <point x="1000" y="200" type="line" smooth="yes"/>
      <point x="1000" y="-20.915"/>
      <point x="820.915" y="-200"/>
      <point x="600" y="-200" type="curve" smooth="yes"/>
      <point x="400" y="-200" type="line" smooth="yes"/>
      <point x="179.086" y="-200"/>
      <point x="0" y="-20.915"/>
      <point x="0" y="200" type="curve" smooth="yes"/>
      <point x="0" y="650" type="line" smooth="yes"/>
      <point x="0" y="732.843"/>
      <point x="67.1572" y="800"/>
    </contour>
  </outline>
</glyph>
<glyph name="w" format="2">
  <advance width="1000"/>
  <unicode hex="0077"/>
  <outline>
    <contour>
      <point x="1000" y="0" type="line" smooth="yes"/>
      <point x="1000" y="-110.457"/>
      <point x="910.457" y="-200"/>
      <point x="800" y="-200" type="curve" smooth="yes"/>
      <point x="200" y="-200" type="line" smooth="yes"/>
      <point x="89.543" y="-200"/>
      <point x="0" y="-110.457"/>
      <point x="0" y="0" type="curve" smooth="yes"/>
      <point x="0" y="700" type="line" smooth="yes"/>
      <point x="0" y="755.229"/>
      <point x="44.7715" y="800"/>
      <point x="100" y="800" type="curve" smooth="yes"/>
      <point x="155.229" y="800"/>
      <point x="200" y="755.229"/>
      <point x="200" y="700" type="curve" smooth="yes"/>
      <point x="200" y="650" type="line" smooth="yes"/>
      <point x="200" y="594.771"/>
      <point x="244.771" y="550"/>
      <point x="300" y="550" type="curve" smooth="yes"/>
      <point x="355.228" y="550"/>
      <point x="400" y="594.771"/>
      <point x="400" y="650" type="curve" smooth="yes"/>
      <point x="400" y="700" type="line" smooth="yes"/>
      <point x="400" y="755.229"/>
      <point x="444.772" y="800"/>
      <point x="500" y="800" type="curve" smooth="yes"/>
      <point x="555.228" y="800"/>
      <point x="600" y="755.229"/>
      <point x="600" y="700" type="curve" smooth="yes"/>
      <point x="600" y="650" type="line" smooth="yes"/>
      <point x="600" y="594.771"/>
      <point x="644.772" y="550"/>
      <point x="700" y="550" type="curve" smooth="yes"/>
      <point x="755.228" y="550"/>
      <point x="800" y="594.771"/>
      <point x="800" y="650" type="curve" smooth="yes"/>
      <point x="800" y="700" type="line" smooth="yes"/>
      <point x="800" y="755.229"/>
      <point x="844.772" y="800"/>
      <point x="900" y="800" type="curve" smooth="yes"/>
      <point x="955.228" y="800"/>
      <point x="1000" y="755.229"/>
      <point x="1000" y="700" type="curve" smooth="yes"/>
    </contour>
  </outline>
</glyph>
<glyph name="x" format="2">
  <advance width="1000"/>
  <unicode hex="0078"/>
  <outline>
    <contour>
      <point x="600" y="675" type="line" smooth="yes"/>
      <point x="600" y="744.035"/>
      <point x="655.965" y="800"/>
      <point x="725" y="800" type="curve" smooth="yes"/>
      <point x="800" y="800" type="line" smooth="yes"/>
      <point x="910.457" y="800"/>
      <point x="1000" y="710.457"/>
      <point x="1000" y="600" type="curve" smooth="yes"/>
      <point x="1000" y="525" type="line" smooth="yes"/>
      <point x="1000" y="455.965"/>
      <point x="944.035" y="400"/>
      <point x="875" y="400" type="curve" smooth="yes"/>
      <point x="850" y="400" type="line" smooth="yes"/>
      <point x="794.772" y="400"/>
      <point x="750" y="355.228"/>
      <point x="750" y="300" type="curve" smooth="yes"/>
      <point x="750" y="244.772"/>
      <point x="794.772" y="200"/>
      <point x="850" y="200" type="curve" smooth="yes"/>
      <point x="875" y="200" type="line" smooth="yes"/>
      <point x="944.035" y="200"/>
      <point x="1000" y="144.035"/>
      <point x="1000" y="75" type="curve" smooth="yes"/>
      <point x="1000" y="0" type="line" smooth="yes"/>
      <point x="1000" y="-110.457"/>
      <point x="910.457" y="-200"/>
      <point x="800" y="-200" type="curve" smooth="yes"/>
      <point x="725" y="-200" type="line" smooth="yes"/>
      <point x="655.965" y="-200"/>
      <point x="600" y="-144.035"/>
      <point x="600" y="-75" type="curve" smooth="yes"/>
      <point x="600" y="-50" type="line" smooth="yes"/>
      <point x="600" y="5.22754"/>
      <point x="555.228" y="50"/>
      <point x="500" y="50" type="curve" smooth="yes"/>
      <point x="444.772" y="50"/>
      <point x="400" y="5.22754"/>
      <point x="400" y="-50" type="curve" smooth="yes"/>
      <point x="400" y="-75" type="line" smooth="yes"/>
      <point x="400" y="-144.035"/>
      <point x="344.035" y="-200"/>
      <point x="275" y="-200" type="curve" smooth="yes"/>
      <point x="200" y="-200" type="line" smooth="yes"/>
      <point x="89.543" y="-200"/>
      <point x="0" y="-110.457"/>
      <point x="0" y="0" type="curve" smooth="yes"/>
      <point x="0" y="75" type="line" smooth="yes"/>
      <point x="0" y="144.035"/>
      <point x="55.9648" y="200"/>
      <point x="125" y="200" type="curve" smooth="yes"/>
      <point x="150" y="200" type="line" smooth="yes"/>
      <point x="205.229" y="200"/>
      <point x="250" y="244.772"/>
      <point x="250" y="300" type="curve" smooth="yes"/>
      <point x="250" y="355.228"/>
      <point x="205.229" y="400"/>
      <point x="150" y="400" type="curve" smooth="yes"/>
      <point x="125" y="400" type="line" smooth="yes"/>
      <point x="55.9648" y="400"/>
      <point x="0" y="455.965"/>
      <point x="0" y="525" type="curve" smooth="yes"/>
      <point x="0" y="600" type="line" smooth="yes"/>
      <point x="0" y="710.457"/>
      <point x="89.543" y="800"/>
      <point x="200" y="800" type="curve" smooth="yes"/>
      <point x="275" y="800" type="line" smooth="yes"/>
      <point x="344.035" y="800"/>
      <point x="400" y="744.035"/>
      <point x="400" y="675" type="curve" smooth="yes"/>
      <point x="400" y="650" type="line" smooth="yes"/>
      <point x="400" y="594.771"/>
      <point x="444.772" y="550"/>
      <point x="500" y="550" type="curve" smooth="yes"/>
      <point x="555.228" y="550"/>
      <point x="600" y="594.771"/>
      <point x="600" y="650" type="curve" smooth="yes"/>
    </contour>
  </outline>
</glyph>
<glyph name="y" format="2">
  <advance width="1000"/>
  <unicode hex="0079"/>
  <outline>
    <contour>
      <point x="189.34" y="0" type="curve" smooth="yes"/>
      <point x="189.34" y="155.33" type="line" smooth="yes"/>
      <point x="189.34" y="207.615"/>
      <point x="146.955" y="250"/>
      <point x="94.6699" y="250" type="curve" smooth="yes"/>
      <point x="42.3848" y="250"/>
      <point x="0" y="292.385"/>
      <point x="0" y="344.67" type="curve" smooth="yes"/>
      <point x="0" y="600" type="line" smooth="yes"/>
      <point x="0" y="710.457"/>
      <point x="89.543" y="800"/>
      <point x="200" y="800" type="curve" smooth="yes"/>
      <point x="275" y="800" type="line" smooth="yes"/>
      <point x="344.035" y="800"/>
      <point x="400" y="744.035"/>
      <point x="400" y="675" type="curve" smooth="yes"/>
      <point x="400" y="650" type="line" smooth="yes"/>
      <point x="400" y="594.771"/>
      <point x="444.772" y="550"/>
      <point x="500" y="550" type="curve" smooth="yes"/>
      <point x="555.228" y="550"/>
      <point x="600" y="594.771"/>
      <point x="600" y="650" type="curve" smooth="yes"/>
      <point x="600" y="675" type="line" smooth="yes"/>
      <point x="600" y="744.035"/>
      <point x="655.965" y="800"/>
      <point x="725" y="800" type="curve" smooth="yes"/>
      <point x="800" y="800" type="line" smooth="yes"/>
      <point x="910.457" y="800"/>
      <point x="1000" y="710.457"/>
      <point x="1000" y="600" type="curve" smooth="yes"/>
      <point x="1000" y="342.83" type="line" smooth="yes"/>
      <point x="1000" y="291.562"/>
      <point x="958.438" y="250"/>
      <point x="907.17" y="250" type="curve" smooth="yes"/>
      <point x="855.902" y="250"/>
      <point x="814.34" y="208.438"/>
      <point x="814.34" y="157.17" type="curve" smooth="yes"/>
      <point x="814.34" y="0" type="line" smooth="yes"/>
      <point x="814.34" y="-110.457"/>
      <point x="724.798" y="-200"/>
      <point x="614.34" y="-200" type="curve" smooth="yes"/>
      <point x="389.34" y="-200" type="line" smooth="yes"/>
      <point x="278.883" y="-200"/>
      <point x="189.34" y="-110.457"/>
    </contour>
  </outline>
</glyph>
<glyph name="z" format="2">
  <advance width="1000"/>
  <unicode hex="007A"/>
  <outline>
    <contour>
      <point x="100" y="600" type="line" smooth="yes"/>
      <point x="44.7715" y="600"/>
      <point x="0" y="644.771"/>
      <point x="0" y="700" type="curve" smooth="yes"/>
      <point x="0" y="755.229"/>
      <point x="44.7715" y="800"/>
      <point x="100" y="800" type="curve" smooth="yes"/>
      <point x="800" y="800" type="line" smooth="yes"/>
      <point x="910.457" y="800"/>
      <point x="1000" y="710.457"/>
      <point x="1000" y="600" type="curve" smooth="yes"/>
      <point x="1000" y="325" type="line" smooth="yes"/>
      <point x="1000" y="255.965"/>
      <point x="944.035" y="200"/>
      <point x="875" y="200" type="curve" smooth="yes"/>
      <point x="850" y="200" type="line" smooth="yes"/>
      <point x="794.772" y="200"/>
      <point x="750" y="155.228"/>
      <point x="750" y="100" type="curve" smooth="yes"/>
      <point x="750" y="44.7725"/>
      <point x="794.772" y="0"/>
      <point x="850" y="0" type="curve" smooth="yes"/>
      <point x="900" y="0" type="line" smooth="yes"/>
      <point x="955.228" y="0"/>
      <point x="1000" y="-44.7725"/>
      <point x="1000" y="-100" type="curve" smooth="yes"/>
      <point x="1000" y="-155.228"/>
      <point x="955.228" y="-200"/>
      <point x="900" y="-200" type="curve" smooth="yes"/>
      <point x="200" y="-200" type="line" smooth="yes"/>
      <point x="89.543" y="-200"/>
      <point x="0" y="-110.457"/>
      <point x="0" y="0" type="curve" smooth="yes"/>
      <point x="0" y="275" type="line" smooth="yes"/>
      <point x="0" y="344.035"/>
      <point x="55.9648" y="400"/>
      <point x="125" y="400" type="curve" smooth="yes"/>
      <point x="150" y="400" type="line" smooth="yes"/>
      <point x="205.229" y="400"/>
      <point x="250" y="444.772"/>
      <point x="250" y="500" type="curve" smooth="yes"/>
      <point x="250" y="555.229"/>
      <point x="205.229" y="600"/>
      <point x="150" y="600" type="curve" smooth="yes"/>
    </contour>
  </outline>
</glyph>
